<?xml version="1.0" standalone="no"?>
<!DOCTYPE svg PUBLIC "-//W3C//DTD SVG 20010904//EN"
 "http://www.w3.org/TR/2001/REC-SVG-20010904/DTD/svg10.dtd">
<svg version="1.0" xmlns="http://www.w3.org/2000/svg"
 width="170" height="300" viewBox="0 0 1200.000000 1200.000000"
 preserveAspectRatio="xMidYMid meet">

<g transform="translate(0.000000,1200.000000) scale(0.100000,-0.100000)"
fill="#000000" stroke="none">
<path d="M5850 11704 c-139 -37 -254 -133 -318 -264 -32 -67 -37 -85 -40 -172
-4 -78 0 -110 17 -167 12 -38 26 -73 31 -76 25 -15 4 -23 -77 -30 -287 -24
-495 -194 -563 -461 -17 -65 -20 -111 -20 -282 l0 -205 -84 81 c-109 105 -154
116 -226 56 -32 -28 -47 -78 -34 -118 5 -14 84 -102 176 -195 l168 -169 -88
-65 c-125 -94 -281 -256 -399 -413 l-21 -29 -169 168 c-107 107 -179 170 -198
175 -58 17 -116 -15 -142 -77 -23 -55 -9 -86 85 -183 l85 -88 -169 0 -168 0
-49 52 c-27 29 -63 79 -80 113 -29 55 -32 68 -32 155 0 153 -7 144 449 598
362 360 395 391 448 410 31 12 87 24 123 28 78 8 110 29 126 85 27 90 -28 159
-126 159 -137 -1 -278 -58 -385 -157 -37 -34 -70 -63 -73 -63 -3 0 -12 21 -21
48 -37 109 -143 216 -264 264 -48 19 -75 23 -177 23 -137 0 -188 -15 -295 -87
-150 -100 -231 -311 -186 -485 40 -159 138 -272 288 -333 l57 -23 -59 -64
c-182 -199 -210 -503 -65 -719 l41 -61 -57 -37 c-81 -52 -177 -158 -221 -242
-46 -87 -68 -175 -68 -272 0 -41 -3 -72 -7 -70 -124 64 -217 79 -327 56 -108
-24 -181 -63 -251 -135 -135 -137 -177 -319 -115 -497 92 -269 406 -404 653
-280 l47 24 0 -76 c0 -202 106 -391 283 -501 31 -20 57 -38 57 -40 0 -2 -18
-34 -40 -71 -62 -103 -85 -187 -85 -312 1 -159 49 -280 156 -394 52 -56 58
-67 43 -72 -45 -13 -132 -59 -167 -86 -52 -41 -124 -146 -149 -215 -75 -210 9
-437 207 -562 179 -113 410 -94 566 46 47 42 100 122 124 186 10 26 19 47 21
47 2 0 26 -21 54 -47 110 -103 238 -160 381 -170 103 -7 133 -1 165 34 19 21
24 37 24 79 0 45 -5 59 -29 86 -27 31 -33 33 -123 39 -160 12 -157 10 -594
448 -445 447 -439 439 -439 595 0 92 3 106 28 155 16 30 52 76 79 102 l51 49
165 0 165 0 -81 -84 c-92 -96 -105 -130 -77 -189 26 -55 87 -87 137 -72 13 4
101 84 195 178 95 94 174 169 176 166 2 -2 30 -40 62 -84 75 -101 258 -283
358 -355 42 -30 77 -60 77 -65 0 -6 -68 -78 -151 -160 -183 -182 -189 -189
-189 -232 0 -70 51 -123 120 -123 45 0 66 13 153 98 l77 77 0 -215 c1 -244 9
-302 62 -412 78 -163 213 -272 396 -319 41 -10 106 -19 145 -19 62 0 68 -2 62
-17 -49 -115 -58 -151 -58 -228 2 -183 101 -343 263 -425 78 -40 132 -52 224
-51 176 0 340 102 422 259 70 135 71 313 3 430 l-18 32 72 0 c163 0 308 61
427 179 43 42 88 96 100 121 12 25 24 46 25 48 1 2 23 -11 47 -27 227 -153
532 -129 729 57 69 64 79 71 79 50 0 -29 61 -140 100 -182 198 -214 530 -211
712 7 64 77 103 159 119 248 10 58 10 81 -4 150 -9 45 -28 105 -43 134 -50 99
-173 202 -287 239 -16 5 -11 15 36 67 190 209 214 512 59 738 l-30 45 61 35
c181 105 296 303 297 510 0 55 3 72 13 68 145 -65 217 -77 322 -58 247 45 426
297 386 543 -33 206 -195 372 -401 409 -104 18 -208 -1 -311 -58 -3 -2 -9 38
-12 89 -7 121 -35 209 -98 303 -52 77 -144 163 -206 193 -18 9 -33 19 -33 23
0 3 16 33 35 65 75 125 105 261 86 389 -21 140 -64 230 -164 341 l-47 51 58
22 c201 75 330 301 294 513 -18 102 -52 169 -123 244 -106 110 -240 162 -389
151 -97 -7 -178 -36 -262 -93 -75 -51 -137 -133 -158 -209 l-12 -43 -72 60
c-211 180 -481 205 -709 68 -38 -23 -70 -40 -71 -38 -2 2 -19 31 -39 64 -46
77 -154 179 -233 221 -74 40 -144 58 -251 68 -46 4 -83 8 -83 10 0 1 12 29 27
61 54 117 41 295 -30 413 -40 67 -139 160 -201 189 -109 52 -229 64 -336 36z
m221 -250 c76 -38 126 -109 136 -192 21 -185 -171 -318 -344 -238 -90 42 -140
133 -130 239 12 131 132 225 267 210 25 -3 57 -12 71 -19z m540 -737 c66 -32
142 -109 170 -171 10 -24 23 -74 29 -112 9 -65 15 -594 6 -594 -2 0 -48 17
-102 39 -55 21 -107 41 -116 44 -16 6 -18 23 -18 169 0 90 -5 181 -10 203 -19
82 -104 119 -181 79 -49 -25 -59 -64 -59 -232 l0 -148 -87 14 c-53 9 -161 14
-273 14 -112 0 -220 -5 -272 -14 l-88 -14 0 149 c0 166 -9 200 -59 230 -70 41
-159 6 -181 -71 -5 -20 -10 -113 -10 -205 0 -151 -2 -168 -17 -174 -10 -3 -62
-23 -117 -44 -54 -22 -100 -39 -102 -39 -9 0 -3 561 7 615 26 140 128 251 264
286 17 4 284 7 595 6 l565 -2 56 -28z m-2910 -52 c92 -32 160 -129 160 -229 0
-70 -20 -115 -74 -170 -53 -52 -107 -71 -185 -63 -140 15 -245 154 -213 284
37 145 176 224 312 178z m4690 1 c82 -29 149 -112 163 -201 8 -50 -13 -124
-48 -170 -56 -73 -170 -111 -262 -86 -53 14 -117 70 -144 126 -90 187 98 400
291 331z m-863 -162 c47 -22 121 -91 435 -403 326 -324 382 -385 409 -438 58
-118 47 -262 -27 -355 -18 -24 -46 -62 -62 -85 l-28 -43 -169 0 -170 0 86 88
c114 116 124 158 53 229 -26 26 -41 33 -73 33 -51 0 -69 -14 -259 -196 l-158
-151 -45 66 c-58 85 -272 301 -377 379 l-82 62 169 168 c144 144 169 174 176
207 9 51 -18 103 -66 129 -58 31 -94 18 -191 -70 l-84 -76 -3 163 -3 163 48
48 c91 93 161 120 286 114 59 -3 92 -11 135 -32z m-1216 -753 c577 -118 1055
-529 1256 -1081 128 -348 135 -759 21 -1105 -39 -119 -123 -289 -198 -400 -53
-78 -61 -96 -61 -137 0 -120 139 -158 220 -60 l30 36 172 -171 c95 -94 183
-174 196 -178 50 -15 111 17 137 72 28 59 15 93 -77 189 l-81 84 165 0 165 0
57 -59 c72 -77 97 -134 103 -236 4 -66 1 -91 -17 -140 -21 -57 -45 -83 -419
-458 -444 -446 -455 -455 -590 -465 -110 -7 -187 24 -283 117 l-48 45 0 170 0
169 90 -87 c86 -83 102 -92 155 -86 35 4 74 33 91 68 31 66 19 88 -167 282
l-169 178 64 46 c82 59 96 79 96 139 0 40 -5 54 -28 77 -16 16 -45 32 -65 35
-44 8 -64 -2 -212 -103 -129 -88 -274 -160 -416 -206 -143 -47 -229 -64 -396
-78 -294 -25 -599 34 -867 168 -501 251 -828 697 -928 1264 -7 44 -13 153 -13
265 0 158 4 209 23 303 144 717 721 1262 1442 1362 110 15 441 4 552 -19z
m-2103 -853 c-12 -24 -34 -77 -49 -118 l-28 -75 -196 -5 -196 -5 -30 -30 c-38
-38 -47 -88 -27 -137 27 -65 51 -73 230 -77 l158 -3 -5 -27 c-37 -173 -36
-490 0 -663 l6 -28 -159 0 c-139 0 -162 -2 -190 -20 -43 -26 -61 -84 -44 -140
20 -69 38 -74 260 -80 l194 -5 22 -65 c13 -36 32 -87 44 -113 11 -27 21 -51
21 -53 0 -3 -146 -4 -324 -2 l-323 3 -69 35 c-87 45 -145 113 -174 206 -19 63
-20 90 -20 599 0 504 1 536 20 596 28 91 103 179 180 211 77 33 120 37 418 37
l302 1 -21 -42z m4207 9 c77 -36 145 -104 181 -182 l28 -60 3 -543 c3 -608 2
-622 -64 -719 -41 -59 -83 -95 -152 -126 -45 -21 -62 -22 -374 -25 l-327 -3
31 68 c17 37 38 91 48 118 l17 50 194 5 c125 3 202 9 215 17 24 14 54 71 54
103 0 36 -28 85 -59 103 -24 14 -56 17 -186 17 l-157 0 6 33 c36 179 36 486 0
658 l-5 27 158 3 c179 4 203 12 230 76 19 47 10 95 -27 136 l-28 32 -198 5
-197 5 -17 50 c-10 28 -31 81 -48 118 l-31 68 322 -3 322 -3 61 -28z m-5491
-596 c153 -70 189 -268 71 -386 -114 -113 -297 -90 -376 48 -56 97 -36 224 45
296 21 18 52 39 69 47 45 19 143 17 191 -5z m6317 -16 c69 -49 101 -104 106
-181 10 -147 -90 -257 -233 -258 -116 -1 -210 75 -236 190 -23 104 27 210 123
259 46 23 63 26 125 23 61 -3 78 -8 115 -33z m-3991 -1997 l107 -43 3 -190 c3
-163 7 -194 22 -216 34 -50 123 -67 174 -33 43 28 53 70 53 229 0 109 3 145
13 145 6 0 57 -7 112 -15 55 -8 161 -15 235 -15 74 0 180 7 235 15 55 8 106
15 113 15 9 0 12 -36 12 -145 0 -159 10 -201 53 -229 31 -21 86 -23 127 -6 56
23 64 54 68 260 l4 185 107 43 c58 23 112 45 119 49 11 5 13 -49 9 -308 -2
-196 -8 -327 -15 -349 -35 -106 -121 -197 -225 -236 -49 -18 -82 -19 -612 -19
l-560 0 -60 24 c-71 29 -150 104 -183 173 -34 74 -42 155 -42 447 0 215 3 272
13 267 6 -3 60 -25 118 -48z m-1550 -323 c92 -32 160 -129 160 -229 0 -70 -20
-115 -74 -170 -49 -49 -94 -66 -172 -66 -100 1 -191 73 -221 178 -19 64 -13
108 24 176 57 105 171 149 283 111z m4690 1 c81 -29 147 -110 163 -199 16 -87
-49 -204 -137 -246 -55 -27 -146 -28 -202 -2 -121 55 -174 212 -110 329 58
107 179 157 286 118z m-2326 -805 c109 -49 167 -174 135 -290 -16 -62 -98
-143 -163 -160 -229 -64 -398 194 -252 385 57 75 191 106 280 65z"/>
<path d="M5200 9050 c-433 -114 -670 -581 -509 -1001 46 -120 100 -192 268
-361 128 -129 162 -158 192 -163 72 -13 139 46 139 123 0 44 -1 46 -160 207
-135 138 -165 174 -194 234 -47 99 -62 193 -48 296 41 280 285 462 572 425
133 -17 211 -60 340 -185 58 -56 116 -108 129 -115 49 -25 87 -6 206 110 88
85 127 115 186 143 198 95 441 57 590 -93 157 -156 189 -408 77 -610 -23 -41
-145 -170 -467 -492 -478 -477 -467 -468 -570 -454 -68 9 -117 44 -226 161
-116 124 -169 160 -219 151 -70 -13 -114 -75 -102 -142 6 -29 36 -65 161 -190
136 -137 162 -158 232 -192 73 -35 84 -37 173 -37 89 0 100 2 170 37 70 34
103 64 506 465 237 235 453 455 479 488 159 198 204 477 116 725 -76 214 -250
388 -457 456 -83 27 -100 29 -239 29 -135 -1 -158 -3 -230 -28 -104 -35 -191
-87 -276 -165 l-69 -64 -69 64 c-85 79 -172 131 -276 165 -111 36 -313 43
-425 13z"/>
<path d="M6450 8575 c-62 -19 -120 -80 -126 -131 -6 -48 11 -81 56 -112 40
-27 98 -26 129 2 20 18 47 21 56 6 4 -6 -3 -25 -14 -44 -13 -21 -21 -50 -21
-79 0 -40 4 -49 36 -75 65 -54 121 -47 181 22 149 169 21 429 -209 425 -24 0
-63 -7 -88 -14z"/>
<path d="M4150 3558 c-19 -5 -52 -14 -72 -19 -48 -12 -48 -26 -3 -35 l35 -6
-2 -307 -3 -306 -32 -10 c-59 -17 -35 -25 77 -25 61 0 110 4 110 9 0 5 -10 11
-22 13 -31 4 -36 31 -37 190 l-1 136 35 22 c53 32 98 37 124 11 20 -20 21 -31
21 -186 l0 -165 -30 -6 c-63 -13 -26 -24 80 -24 106 0 143 11 80 24 l-30 6 0
157 c0 220 -14 259 -98 270 -52 7 -102 -10 -138 -47 -16 -16 -33 -30 -38 -30
-5 0 -7 74 -5 167 3 105 0 167 -6 169 -5 1 -26 -2 -45 -8z"/>
<path d="M4700 3558 c-19 -5 -52 -14 -72 -19 -47 -12 -48 -25 -3 -33 l35 -7 0
-309 0 -308 -30 -7 c-44 -10 -37 -21 16 -29 92 -12 104 -9 104 24 0 36 2 37
36 5 54 -51 142 -45 203 13 96 91 93 314 -5 391 -55 43 -142 39 -194 -9 -18
-17 -34 -30 -37 -30 -3 0 -3 73 -1 162 2 102 -1 162 -7 164 -5 1 -26 -2 -45
-8z m198 -314 c33 -23 52 -67 59 -137 7 -75 -15 -163 -48 -193 -31 -28 -100
-26 -133 5 -25 24 -26 28 -26 148 0 69 5 133 10 143 24 44 98 63 138 34z"/>
<path d="M6120 3558 c-19 -5 -52 -14 -72 -19 -48 -12 -48 -26 -3 -35 l35 -6
-2 -307 -3 -306 -32 -10 c-59 -17 -35 -25 77 -25 61 0 110 4 110 9 0 5 -10 11
-22 13 -31 4 -36 31 -37 190 l-1 136 35 22 c53 32 98 37 124 11 20 -20 21 -31
21 -186 l0 -165 -30 -6 c-63 -13 -26 -24 80 -24 106 0 143 11 80 24 l-30 6 0
157 c0 220 -14 259 -98 270 -52 7 -102 -10 -138 -47 -16 -16 -33 -30 -38 -30
-5 0 -7 74 -5 167 3 105 0 167 -6 169 -5 1 -26 -2 -45 -8z"/>
<path d="M7955 3565 c-5 -2 -36 -11 -67 -20 -65 -18 -73 -30 -28 -40 l30 -7 0
-118 0 -119 -36 24 c-64 44 -165 23 -212 -42 -78 -109 -63 -308 27 -372 60
-43 139 -39 190 8 l31 29 0 -34 c0 -32 2 -34 34 -34 51 0 126 12 126 20 0 4
-13 10 -30 14 l-30 6 0 345 c0 351 0 353 -35 340z m-84 -331 c17 -15 19 -33
19 -160 l0 -142 -34 -21 c-40 -25 -73 -27 -104 -5 -41 29 -56 72 -56 164 0 97
19 151 63 175 31 18 86 13 112 -11z"/>
<path d="M9520 3558 c-19 -5 -52 -14 -72 -19 -47 -12 -48 -25 -3 -33 l35 -7 0
-126 0 -126 -22 20 c-71 64 -158 56 -225 -20 -42 -48 -58 -98 -58 -187 1 -125
54 -205 145 -217 53 -7 84 2 125 38 l35 31 0 -36 c0 -33 2 -36 29 -36 47 0
121 12 121 20 0 4 -14 10 -31 14 l-31 6 3 342 c3 222 1 342 -6 344 -5 1 -26
-2 -45 -8z m-63 -330 c23 -21 23 -26 21 -157 l-3 -135 -35 -24 c-26 -18 -44
-22 -69 -18 -66 10 -94 63 -94 176 0 84 16 133 56 166 37 31 86 28 124 -8z"/>
<path d="M3380 3490 c-51 -51 15 -125 76 -85 45 29 21 105 -34 105 -12 0 -31
-9 -42 -20z"/>
<path d="M8967 3492 c-25 -28 -21 -69 8 -88 29 -19 60 -11 81 20 37 57 -44
118 -89 68z"/>
<path d="M2250 3490 c0 -5 11 -10 23 -10 13 0 31 -8 40 -18 15 -16 17 -52 17
-300 l0 -282 -40 -6 c-71 -12 -42 -24 55 -24 97 0 126 12 55 24 l-40 6 0 258
0 257 111 -170 c61 -94 141 -216 177 -272 104 -159 102 -163 102 207 l0 309
35 7 c64 12 36 24 -55 24 -93 0 -120 -13 -50 -24 l40 -6 0 -222 0 -222 -78
120 c-43 65 -111 172 -152 236 l-75 117 -82 1 c-49 0 -83 -4 -83 -10z"/>
<path d="M8470 3278 c-137 -428 -122 -392 -158 -403 -55 -16 -35 -25 58 -25
53 0 90 4 90 10 0 6 -12 10 -27 10 -55 0 -57 9 -27 109 l27 92 96 -3 95 -3 27
-85 c15 -47 28 -88 28 -92 1 -4 -17 -11 -39 -14 -79 -13 -37 -24 90 -24 124 0
168 11 97 24 l-34 6 -97 298 c-53 163 -99 303 -101 310 -3 6 -16 12 -29 12
-24 0 -29 -12 -96 -222z m103 -42 c20 -68 37 -126 37 -130 0 -3 -36 -6 -80 -6
-44 0 -80 3 -80 8 0 17 74 252 80 252 3 0 22 -56 43 -124z"/>
<path d="M3000 3295 c-46 -21 -77 -51 -103 -100 -33 -60 -31 -194 2 -252 33
-57 85 -92 149 -100 67 -8 133 17 167 61 36 47 31 61 -10 30 -48 -36 -118 -43
-161 -16 -36 23 -65 79 -72 139 l-5 43 137 0 136 0 0 49 c0 53 -25 99 -72 134
-36 27 -121 33 -168 12z m140 -49 c16 -31 17 -91 1 -110 -18 -21 -171 -24
-171 -3 0 30 31 115 47 129 38 33 101 25 123 -16z"/>
<path d="M3386 3287 c-77 -25 -92 -41 -46 -50 l30 -6 0 -176 0 -175 -30 -6
c-63 -13 -26 -24 80 -24 106 0 143 11 80 24 l-30 6 0 215 c0 118 -3 215 -7
214 -5 0 -39 -11 -77 -22z"/>
<path d="M3694 3291 c-93 -42 -122 -164 -57 -242 l25 -29 -26 -31 c-49 -58
-49 -121 2 -155 28 -20 30 -23 14 -28 -34 -11 -75 -63 -74 -95 2 -78 50 -106
182 -106 78 0 102 4 135 22 69 37 98 75 103 138 9 104 -37 135 -198 135 -56 0
-110 5 -121 10 -21 12 -25 50 -9 80 9 16 15 18 36 10 74 -29 181 6 216 70 15
28 18 48 15 98 l-5 62 39 0 c39 0 39 0 39 41 l0 40 -51 -27 c-41 -23 -53 -26
-67 -16 -62 45 -132 53 -198 23z m108 -12 c64 -35 63 -224 -2 -259 -59 -31
-104 25 -103 130 0 110 43 162 105 129z m88 -482 c20 -10 26 -21 28 -53 6 -79
-75 -134 -174 -119 -84 12 -123 96 -73 159 19 25 25 26 107 26 50 0 98 -6 112
-13z"/>
<path d="M5287 3300 c-108 -33 -170 -174 -133 -304 31 -107 113 -164 220 -153
155 16 236 184 169 347 -39 95 -149 142 -256 110z m130 -42 c28 -26 43 -90 43
-185 0 -137 -35 -207 -103 -207 -79 0 -112 73 -105 231 3 76 8 107 24 133 36
62 93 73 141 28z"/>
<path d="M5707 3286 c-38 -12 -68 -26 -68 -31 0 -6 13 -14 30 -19 l31 -9 0
-174 0 -173 -30 -6 c-64 -13 -25 -24 85 -24 70 0 115 4 115 10 0 6 -9 10 -19
10 -50 0 -51 4 -51 149 0 136 0 138 31 185 l30 49 28 -27 c42 -40 90 -30 106
21 8 29 -26 63 -62 63 -41 0 -91 -35 -111 -77 l-17 -36 -5 53 c-3 29 -9 54
-15 56 -5 1 -41 -8 -78 -20z"/>
<path d="M6700 3294 c-101 -44 -151 -166 -120 -294 47 -197 316 -215 395 -27
20 47 21 139 4 198 -33 110 -170 170 -279 123z m143 -32 c49 -44 62 -253 21
-338 -36 -73 -118 -80 -158 -13 -39 67 -38 274 2 329 38 51 93 60 135 22z"/>
<path d="M7210 3294 c-101 -44 -151 -166 -120 -294 47 -197 316 -215 395 -27
20 47 21 139 4 198 -33 110 -170 170 -279 123z m143 -32 c49 -44 62 -253 21
-338 -36 -73 -118 -80 -158 -13 -39 67 -38 274 2 329 38 51 93 60 135 22z"/>
<path d="M8972 3286 c-41 -11 -74 -25 -74 -31 0 -5 14 -14 31 -19 l31 -9 0
-174 0 -173 -30 -6 c-63 -13 -25 -24 82 -24 67 0 108 4 103 9 -6 5 -19 11 -30
13 -19 3 -20 12 -23 213 -1 115 -6 212 -10 216 -4 4 -40 -3 -80 -15z"/>
</g>
</svg>
